<svg width="310" height="310" viewBox="0 0 310 310" fill="none" xmlns="http://www.w3.org/2000/svg">
<rect width="310" height="310" rx="32" fill="#4736FE"/>
<path d="M107.091 185.512C103.294 181.928 99.8001 178.103 96.1022 174.574C86.8724 165.768 79.2805 158.125 78.8581 144.378C78.546 135.213 81.951 126.31 88.2999 119.692C91.9312 115.849 96.1785 111.766 99.9524 108L120.25 87.7015L132.223 75.7225C134.694 73.2564 139.699 68.0672 142.47 66.4046C147.442 63.4223 154.675 61.1407 160.516 61.005C166.437 60.8814 173.194 63.0849 178.346 65.8312C180.43 66.9418 183.843 69.9557 185.475 71.5752C196.706 82.7179 207.848 93.9491 219.067 105.104C219.691 105.724 220.372 106.425 221.047 106.984C218.316 109.926 215.321 112.766 212.464 115.616C209.324 118.75 206.258 122.187 202.826 124.955C209.036 131.465 215.755 137.567 221.87 144.126C232.502 155.53 233.939 172.74 225.43 185.79C222.753 189.896 218.109 194.185 214.605 197.661L203.018 209.243C192.97 219.229 183.082 229.315 172.93 239.257C165.529 246.505 158.047 249.2 147.782 249.058C134.049 248.869 127.854 242.389 118.743 233.282L108.295 222.83L95.3299 209.873C94.1845 208.729 89.1464 204.282 89.0971 203.01C93.9824 197.994 101.849 189.666 107.091 185.512Z" fill="#FEFEFE"/>
<path d="M107.091 185.512C111.985 191.049 119.581 198.253 125.081 203.213C113.31 202.749 100.757 203.51 89.0967 203.01C93.9819 197.994 101.848 189.666 107.091 185.512Z" fill="#A39AFF"/>
<path d="M149.014 178.969C148.206 178.36 147.428 177.711 146.684 177.024C138.579 169.408 130.938 160.827 122.862 153.185C114.967 145.715 109.245 137.908 108.884 126.553C108.562 117.495 111.853 108.68 118.031 102.048C124.261 95.4107 132.879 91.5301 141.979 91.2657C159.941 90.7931 167.324 101.989 178.968 113.041C185.027 119.245 190.905 125.067 197.052 131.138C186.656 130.619 175.735 131.409 165.277 131.015C164.047 130.969 162.221 130.797 161.063 130.863C161.197 131.678 163.06 133.398 163.682 134.028C172.872 143.338 182.67 152.497 191.642 161.986C197.779 168.553 201.105 177.259 200.908 186.245C200.391 205.092 183.965 220.155 165.311 219.045C153.17 218.323 146.097 213.15 137.992 204.379C135.744 201.947 132.988 199.628 130.663 197.147C133.779 194.464 137.195 190.887 140.152 187.957C142.868 185.267 146.583 181.813 149.014 178.969Z" fill="#4736FE"/>
<path d="M178.968 113.041C185.026 119.245 190.905 125.067 197.051 131.138C186.656 130.619 175.735 131.409 165.277 131.015C164.047 130.969 162.221 130.797 161.062 130.863C161.632 130.38 162.2 129.852 162.732 129.329C168.183 123.973 173.477 118.351 178.968 113.041Z" fill="#A39AFF"/>
</svg>
